<svg width="25" height="24" viewBox="0 0 25 24" fill="none" xmlns="http://www.w3.org/2000/svg">
<path fill-rule="evenodd" clip-rule="evenodd" d="M10.8778 11.23C10.4403 11.23 10.0943 11.57 10.0943 12C10.0943 12.42 10.4403 12.77 10.8778 12.77H16.9824V17.55C16.9824 20 14.9577 22 12.4548 22H7.49986C5.00713 22 2.98242 20.01 2.98242 17.56V6.45C2.98242 3.99 5.01731 2 7.51004 2H12.4752C14.9577 2 16.9824 3.99 16.9824 6.44V11.23H10.8778ZM20.6126 8.5402L23.5326 11.4502C23.6826 11.6002 23.7626 11.7902 23.7626 12.0002C23.7626 12.2002 23.6826 12.4002 23.5326 12.5402L20.6126 15.4502C20.4626 15.6002 20.2626 15.6802 20.0726 15.6802C19.8726 15.6802 19.6726 15.6002 19.5226 15.4502C19.2226 15.1502 19.2226 14.6602 19.5226 14.3602L21.1226 12.7702H16.9826V11.2302H21.1226L19.5226 9.6402C19.2226 9.3402 19.2226 8.8502 19.5226 8.5502C19.8226 8.2402 20.3126 8.2402 20.6126 8.5402Z" fill="#7C7F93"/>
</svg>
