<svg width="25" height="24" viewBox="0 0 25 24" fill="none" xmlns="http://www.w3.org/2000/svg">
<path fill-rule="evenodd" clip-rule="evenodd" d="M8.79242 2H17.1734C20.2624 2 21.9824 3.78 21.9824 6.83V17.16C21.9824 20.26 20.2624 22 17.1734 22H8.79242C5.75242 22 3.98242 20.26 3.98242 17.16V6.83C3.98242 3.78 5.75242 2 8.79242 2ZM9.06242 6.66V6.65H12.0514C12.4824 6.65 12.8324 7 12.8324 7.429C12.8324 7.87 12.4824 8.22 12.0514 8.22H9.06242C8.63142 8.22 8.28242 7.87 8.28242 7.44C8.28242 7.01 8.63142 6.66 9.06242 6.66ZM9.06242 12.74H16.9024C17.3324 12.74 17.6824 12.39 17.6824 11.96C17.6824 11.53 17.3324 11.179 16.9024 11.179H9.06242C8.63142 11.179 8.28242 11.53 8.28242 11.96C8.28242 12.39 8.63142 12.74 9.06242 12.74ZM9.06242 17.31H16.9024C17.3014 17.27 17.6024 16.929 17.6024 16.53C17.6024 16.12 17.3014 15.78 16.9024 15.74H9.06242C8.76242 15.71 8.47242 15.85 8.31242 16.11C8.15242 16.36 8.15242 16.69 8.31242 16.95C8.47242 17.2 8.76242 17.35 9.06242 17.31Z" fill="#7C7F93"/>
</svg>
