<svg width="25" height="24" viewBox="0 0 25 24" fill="none" xmlns="http://www.w3.org/2000/svg">
<path fill-rule="evenodd" clip-rule="evenodd" d="M13.3088 2.20966C13.4685 2.06632 13.6797 1.99119 13.896 2.00082C18.4668 2.13765 22.2868 5.4558 22.9791 9.89063C22.9835 9.91711 22.9835 9.94411 22.9791 9.97059C22.994 10.1804 22.9231 10.3874 22.7821 10.5458C22.641 10.7043 22.4414 10.801 22.2275 10.8147L14.548 11.3211C14.294 11.3436 14.0422 11.26 13.8543 11.0909C13.6664 10.9218 13.5599 10.6828 13.5609 10.4326L13.0447 2.88932V2.76493C13.0541 2.55278 13.1491 2.353 13.3088 2.20966ZM12.7821 13.2936L19.4382 12.8671L19.4835 12.8848C19.7693 12.8895 20.0416 13.0054 20.2403 13.207C20.439 13.4087 20.5479 13.6795 20.5431 13.9599C20.2808 17.782 17.4786 20.9755 13.6652 21.7982C9.8518 22.621 5.9426 20.8754 4.0702 17.5139C3.51964 16.5457 3.17172 15.4794 3.04688 14.3775C2.99845 14.051 2.97725 13.7212 2.98348 13.3913C2.9961 9.32706 5.8897 5.81907 9.93849 4.9595C10.4286 4.86776 10.92 5.11248 11.1339 5.55479C11.1871 5.63505 11.2297 5.72164 11.2607 5.81245C11.3366 6.98405 11.4153 8.14455 11.4937 9.30015C11.5556 10.2128 11.6173 11.1223 11.6772 12.0319C11.6741 12.2462 11.7078 12.4594 11.7769 12.6627C11.9394 13.0627 12.3438 13.3165 12.7821 13.2936Z" fill="#7C7F93"/>
</svg>
