<svg width="25" height="24" viewBox="0 0 25 24" fill="none" xmlns="http://www.w3.org/2000/svg">
<path fill-rule="evenodd" clip-rule="evenodd" d="M17.9127 7C17.9445 6.92913 17.9594 6.85189 17.9563 6.77432H17.9824C17.8706 4.10591 15.6673 2 12.9874 2C10.3074 2 8.10414 4.10591 7.99231 6.77432C7.97913 6.84898 7.97913 6.92535 7.99231 7H7.91413C6.63264 7 5.26277 7.84597 4.86506 10.1201L4.08733 16.3147C3.451 20.8629 5.79304 22 8.85095 22H17.1409C20.19 22 22.4613 20.3535 21.8957 16.3147L21.1268 10.1201C20.6584 7.90964 19.3327 7 18.0689 7H17.9127ZM16.4756 7C16.4478 6.92794 16.4331 6.85153 16.4321 6.77432C16.4321 4.85682 14.8723 3.30238 12.9482 3.30238C11.0241 3.30238 9.46426 4.85682 9.46426 6.77432C9.47745 6.84898 9.47745 6.92535 9.46426 7H16.4756ZM10.0794 12.1486C9.59132 12.1486 9.19563 11.7413 9.19563 11.2389C9.19563 10.7366 9.59132 10.3293 10.0794 10.3293C10.5675 10.3293 10.9632 10.7366 10.9632 11.2389C10.9632 11.7413 10.5675 12.1486 10.0794 12.1486ZM14.9844 11.2389C14.9844 11.7413 15.3801 12.1486 15.8682 12.1486C16.3563 12.1486 16.752 11.7413 16.752 11.2389C16.752 10.7366 16.3563 10.3293 15.8682 10.3293C15.3801 10.3293 14.9844 10.7366 14.9844 11.2389Z" fill="#7C7F93"/>
</svg>
