<svg width="25" height="24" viewBox="0 0 25 24" fill="none" xmlns="http://www.w3.org/2000/svg">
<path fill-rule="evenodd" clip-rule="evenodd" d="M9.90816 16.39H15.2943C15.7002 16.39 16.0369 16.05 16.0369 15.64C16.0369 15.23 15.7002 14.9 15.2943 14.9H9.90816C9.50222 14.9 9.16559 15.23 9.16559 15.64C9.16559 16.05 9.50222 16.39 9.90816 16.39ZM13.2547 9.9H9.90816C9.50222 9.9 9.16559 10.24 9.16559 10.65C9.16559 11.06 9.50222 11.39 9.90816 11.39H13.2547C13.6606 11.39 13.9973 11.06 13.9973 10.65C13.9973 10.24 13.6606 9.9 13.2547 9.9ZM20.3205 9.02561C20.5532 9.02292 20.8066 9.02 21.0369 9.02C21.2844 9.02 21.4824 9.22 21.4824 9.47V17.51C21.4824 19.99 19.4923 22 17.0369 22H9.15569C6.58143 22 4.48242 19.89 4.48242 17.29V6.51C4.48242 4.03 6.48242 2 8.94777 2H14.2349C14.4923 2 14.6903 2.21 14.6903 2.46V5.68C14.6903 7.51 16.1854 9.01 17.9973 9.02C18.4205 9.02 18.7936 9.02316 19.1201 9.02593C19.3741 9.02809 19.6 9.03 19.7993 9.03C19.9402 9.03 20.1229 9.02789 20.3205 9.02561ZM20.5935 7.566C19.7796 7.569 18.8202 7.566 18.1301 7.559C17.0351 7.559 16.1331 6.648 16.1331 5.542V2.906C16.1331 2.475 16.6509 2.261 16.947 2.572C17.4828 3.13476 18.2193 3.90834 18.9523 4.67837C19.6834 5.44632 20.4111 6.21074 20.9331 6.759C21.2222 7.062 21.0103 7.565 20.5935 7.566Z" fill="#7C7F93"/>
</svg>
